HIERARCHY
ROOT hip
{
  OFFSET 0 0 0
  CHANNELS 6 Xposition Yposition Zposition Zrotation Yrotation Xrotation
  JOINT abdomen
  {
    OFFSET 0 20.6881 -0.73152
    CHANNELS 3 Zrotation Xrotation Yrotation
    JOINT chest
    {
      OFFSET 0 11.7043 -0.48768
      CHANNELS 3 Zrotation Xrotation Yrotation
      JOINT neck
      {
        OFFSET 0 22.1894 -2.19456
        CHANNELS 3 Zrotation Xrotation Yrotation
        JOINT head
        {
          OFFSET -0.24384 7.07133 1.2192
          CHANNELS 3 Zrotation Xrotation Yrotation
          JOINT leftEye
          {
            OFFSET 4.14528 8.04674 8.04672
            CHANNELS 3 Zrotation Xrotation Yrotation
            End Site
            {
              OFFSET 1 0 0
            }
          }
          JOINT rightEye
          {
            OFFSET -3.6576 8.04674 8.04672
            CHANNELS 3 Zrotation Xrotation Yrotation
            End Site
            {
              OFFSET 1 0 0
            }
          }
        }
      }
      JOINT rCollar
      {
        OFFSET -2.68224 19.2634 -4.8768
        CHANNELS 3 Zrotation Xrotation Yrotation
        JOINT rShldr
        {
          OFFSET -8.77824 -1.95073 1.46304
          CHANNELS 3 Zrotation Xrotation Yrotation
          JOINT rForeArm
          {
            OFFSET -28.1742 -1.7115 0.48768
            CHANNELS 3 Zrotation Xrotation Yrotation
            JOINT rHand
            {
              OFFSET -22.5879 0.773209 7.07136
              CHANNELS 3 Zrotation Xrotation Yrotation
              JOINT rThumb1
              {
                OFFSET -1.2192 -0.487915 3.41376
                CHANNELS 3 Zrotation Xrotation Yrotation
                JOINT rThumb2
                {
                  OFFSET -3.37035 -0.52449 3.41376
                  CHANNELS 3 Zrotation Xrotation Yrotation
                  End Site
                  {
                    OFFSET -1.78271 -1.18214 1.43049
                  }
                }
              }
              JOINT rIndex1
              {
                OFFSET -7.75947 0.938293 5.60832
                CHANNELS 3 Zrotation Xrotation Yrotation
                JOINT rIndex2
                {
                  OFFSET -2.54057 -0.884171 1.56538
                  CHANNELS 3 Zrotation Xrotation Yrotation
                  End Site
                  {
                    OFFSET -1.62519 -0.234802 1.16502
                  }
                }
              }
              JOINT rMid1
              {
                OFFSET -8.24714 1.18213 3.41376
                CHANNELS 3 Zrotation Xrotation Yrotation
                JOINT rMid2
                {
                  OFFSET -3.10165 -0.590103 1.0647
                  CHANNELS 3 Zrotation Xrotation Yrotation
                  End Site
                  {
                    OFFSET -2.48547 -0.328903 0.83742
                  }
                }
              }
              JOINT rRing1
              {
                OFFSET -8.82822 0.546677 1.51678
                CHANNELS 3 Zrotation Xrotation Yrotation
                JOINT rRing2
                {
                  OFFSET -2.60934 -0.819778 -0.0198488
                  CHANNELS 3 Zrotation Xrotation Yrotation
                  End Site
                  {
                    OFFSET -2.33842 -0.294052 0.168128
                  }
                }
              }
              JOINT rPinky1
              {
                OFFSET -8.27202 -0.0477905 -0.4584
                CHANNELS 3 Zrotation Xrotation Yrotation
                JOINT rPinky2
                {
                  OFFSET -1.82734 -0.647385 -0.700984
                  CHANNELS 3 Zrotation Xrotation Yrotation
                  End Site
                  {
                    OFFSET -1.69225 -0.51767 -0.607171
                  }
                }
              }
            }
          }
        }
      }
      JOINT lCollar
      {
        OFFSET 2.68224 19.2634 -4.8768
        CHANNELS 3 Zrotation Xrotation Yrotation
        JOINT lShldr
        {
          OFFSET 8.77824 -1.95073 1.46304
          CHANNELS 3 Zrotation Xrotation Yrotation
          JOINT lForeArm
          {
            OFFSET 28.1742 -1.7115 0.48768
            CHANNELS 3 Zrotation Xrotation Yrotation
            JOINT lHand
            {
              OFFSET 22.5879 0.773209 7.07136
              CHANNELS 3 Zrotation Xrotation Yrotation
              JOINT lThumb1
              {
                OFFSET 1.2192 -0.487915 3.41376
                CHANNELS 3 Zrotation Xrotation Yrotation
                JOINT lThumb2
                {
                  OFFSET 3.37035 -0.52449 3.41376
                  CHANNELS 3 Zrotation Xrotation Yrotation
                  End Site
                  {
                    OFFSET 1.78271 -1.18214 1.43049
                  }
                }
              }
              JOINT lIndex1
              {
                OFFSET 7.75947 0.938293 5.60832
                CHANNELS 3 Zrotation Xrotation Yrotation
                JOINT lIndex2
                {
                  OFFSET 2.54057 -0.884171 1.56538
                  CHANNELS 3 Zrotation Xrotation Yrotation
                  End Site
                  {
                    OFFSET 1.62519 -0.234802 1.16502
                  }
                }
              }
              JOINT lMid1
              {
                OFFSET 8.24714 1.18213 3.41376
                CHANNELS 3 Zrotation Xrotation Yrotation
                JOINT lMid2
                {
                  OFFSET 3.10165 -0.590103 1.0647
                  CHANNELS 3 Zrotation Xrotation Yrotation
                  End Site
                  {
                    OFFSET 2.48547 -0.328903 0.83742
                  }
                }
              }
              JOINT lRing1
              {
                OFFSET 8.82822 0.546677 1.51678
                CHANNELS 3 Zrotation Xrotation Yrotation
                JOINT lRing2
                {
                  OFFSET 2.60934 -0.819778 -0.0198488
                  CHANNELS 3 Zrotation Xrotation Yrotation
                  End Site
                  {
                    OFFSET 2.33842 -0.294052 0.168128
                  }
                }
              }
              JOINT lPinky1
              {
                OFFSET 8.27202 -0.0477905 -0.4584
                CHANNELS 3 Zrotation Xrotation Yrotation
                JOINT lPinky2
                {
                  OFFSET 1.82734 -0.647385 -0.700984
                  CHANNELS 3 Zrotation Xrotation Yrotation
                  End Site
                  {
                    OFFSET 1.69225 -0.51767 -0.607171
                  }
                }
              }
            }
          }
        }
      }
    }
  }
  JOINT rButtock
  {
    OFFSET -8.77824 4.35084 1.2192
    CHANNELS 3 Zrotation Xrotation Yrotation
    JOINT rThigh
    {
      OFFSET 0 -1.70687 -2.19456
      CHANNELS 3 Zrotation Xrotation Yrotation
      JOINT rShin
      {
        OFFSET 0 -36.8199 0.73152
        CHANNELS 3 Zrotation Xrotation Yrotation
        JOINT rFoot
        {
          OFFSET 0.73152 -45.1104 -5.12064
          CHANNELS 3 Zrotation Xrotation Yrotation
          End Site
          {
            OFFSET -1.1221 -3.69964 12.103
          }
        }
      }
    }
  }
  JOINT lButtock
  {
    OFFSET 8.77824 4.35084 1.2192
    CHANNELS 3 Zrotation Xrotation Yrotation
    JOINT lThigh
    {
      OFFSET 0 -1.70687 -2.19456
      CHANNELS 3 Zrotation Xrotation Yrotation
      JOINT lShin
      {
        OFFSET 0 -36.8199 0.73152
        CHANNELS 3 Zrotation Xrotation Yrotation
        JOINT lFoot
        {
          OFFSET -0.73152 -45.1104 -5.12064
          CHANNELS 3 Zrotation Xrotation Yrotation
          End Site
          {
            OFFSET 1.1221 -3.69964 12.103
          }
        }
      }
    }
  }
}
MOTION
Frames:	6
Frame Time:	0.03333
0.0 0.0 0.0 0.0 0.0 0.0 0.0 0.0 0.0 0.0 0.0 0.0 0.0 0.0 0.0 0.0 0.0 0.0 0.0 0.0 0.0 0.0 0.0 0.0 0.0 0.0 0.0 0.0 0.0 0.0 0.0 0.0 0.0 0.0 0.0 0.0 0.0 0.0 0.0 0.0 0.0 0.0 0.0 0.0 0.0 0.0 0.0 0.0 0.0 0.0 0.0 0.0 0.0 0.0 0.0 0.0 0.0 0.0 0.0 0.0 0.0 0.0 0.0 0.0 0.0 0.0 0.0 0.0 0.0 0.0 0.0 0.0 0.0 0.0 0.0 0.0 0.0 0.0 0.0 0.0 0.0 0.0 0.0 0.0 0.0 0.0 0.0 0.0 0.0 0.0 0.0 0.0 0.0 0.0 0.0 0.0 0.0 0.0 0.0 0.0 0.0 0.0 0.0 0.0 0.0 0.0 0.0 0.0 0.0 0.0 0.0 0.0 0.0 0.0 0.0 0.0 0.0 0.0 0.0 0.0 0.0 0.0 0.0 0.0 0.0 0.0 0.0 0.0 0.0 0.0 0.0 0.0
-1.101 31.1049 -0.2244 0.817712 10.089413 1.376998 -0.456037 -11.446711 -177.884982 12.760437 -7.837501 -95.722126 -0.481067 -36.093364 49.707261 66.146279 -20.062336 53.462383 -125.59372 16.278526 31.098441 -0.606368 -0.171108 31.516314 56.226658 26.529858 22.60904 19.246615 8.850509 6.006498 -13.313614 27.305906 69.29048 126.135526 37.098414 -106.211574 -143.959608 -30.011364 -155.445388 136.276596 -5.010523 170.248349 -153.813302 -49.488287 154.740466 -171.120745 -13.024079 122.790401 159.842195 10.813241 -128.299601 7.887162 -21.251204 144.267704 -44.059156 -0.642326 31.622449 -163.116964 -15.137147 8.216584 -150.572492 -74.596779 -157.860166 -40.98614 -44.813952 90.134032 113.071588 -5.011509 -101.472023 -80.630999 -37.356526 -111.333715 168.80778 42.930378 122.833697 -13.016964 -21.089844 68.239021 19.275699 -54.786774 12.763789 -29.125842 30.711909 169.066781 -26.412471 -18.177922 155.042154 -159.95695 43.691476 142.465303 -3.587544 -23.639907 -173.193873 172.100221 -30.496756 -157.798177 169.295003 23.701142 10.456878 -178.022257 -48.204459 -49.465057 77.776475 -57.645031 -133.632573 159.251024 47.959661 -23.536884 63.0477 17.123832 93.832347 -24.668048 58.212951 -134.673213 -13.971935 -7.802247 -32.380635 148.713332 28.895586 101.13412 7.864727 19.322661 86.955519 -19.137088 8.780482 90.778839 3.14362 -0.997309 -9.822493 56.897606 14.446037 -79.432161
-1.1532 55.5088 -0.34459999999999996 -3.244743 64.003196 -2.112392 1.650123 17.755689 29.751382 -7.876527 -6.741278 -14.979643 21.905936 -17.852267 75.089755 -21.097136 38.021455 -95.337389 -0.904417 -0.315547 38.466612 -87.38356 4.481812 -4.691067 15.813147 42.563904 -5.556106 83.449718 -28.988544 56.721151 38.258259 15.579892 56.116148 -16.397199 53.94884 5.269568 -171.399619 72.6318 148.938194 -143.55579 23.773456 23.909424 160.429771 25.786937 -144.760611 46.446414 -66.603465 44.684265 -171.642133 -64.413173 135.834283 -125.843953 -21.04527 16.662112 -77.590678 51.906622 -114.234562 -64.666028 -78.849071 128.843679 2.93303 0.625871 -13.898836 -18.124631 -28.465774 133.70536 2.188846 17.8496 -13.847458 -72.90866 4.113341 -25.631556 32.506628 -18.19764 -82.918157 -46.859076 -35.354659 7.394458 78.903189 80.245853 -86.866794 154.598871 8.449529 55.674322 119.150089 -67.445646 -167.247212 139.707195 84.648064 -165.506897 -47.796526 -5.311344 -91.483422 146.686368 81.68527 -17.077601 -44.786878 57.793835 38.658752 165.081205 -87.565731 119.281638 137.787942 15.96377 48.029681 -55.270191 8.338632 60.421137 -15.3639 -14.092435 -33.233051 13.229405 -4.103519 -60.708131 -30.050445 7.262348 112.397202 54.236205 -32.293057 -20.82175 23.162769 -2.452371 28.951713 -15.535252 0.846283 -98.905185 -19.800888 -4.614066 79.127767 84.640028 21.258265 -55.859415
-1.2897 70.8908 -0.688 -2.968782 67.86465 0.61773 -0.177405 19.287936 87.667402 -15.65884 -0.777428 -80.48661 22.407038 12.624736 75.657095 -35.299262 26.968514 -95.855226 66.134138 -3.064739 -4.705687 -80.968361 -6.259397 7.330199 -146.490842 -54.193995 -168.452927 -41.081124 -28.82847 -49.872996 -173.358125 11.854414 -106.184012 -10.137315 15.828626 -1.023875 104.19155 -37.958976 46.443465 -70.379118 -79.089685 -95.985419 -168.512286 26.916431 162.384575 -62.496856 -85.594348 -73.888512 -67.278444 61.778013 77.950459 174.789417 -6.118944 59.767376 120.579501 -12.638688 -168.295874 -102.552229 28.319209 -7.210626 -129.443787 49.786454 -151.17561 170.377205 -11.641833 -20.985213 -7.126387 -19.811646 -5.635027 99.810764 -21.300227 165.773384 175.775035 3.344243 87.30594 -9.161812 8.775644 3.962343 21.190287 21.373322 -7.543143 53.497721 55.241165 -68.632588 119.79066 -25.798387 -168.670706 133.403046 -2.11213 -138.550187 -4.286791 -30.620579 -4.033744 35.277356 41.689247 34.721661 -59.231637 39.082123 46.889327 76.137991 83.98161 -21.168839 -61.242036 -17.734138 -1.67712 170.739482 -18.011004 72.682258 108.375835 62.8352 50.049506 -166.23496 28.034362 153.554566 1.171167 -72.489445 -24.414603 67.028303 39.719266 -160.625462 125.49709 72.036824 59.990381 -149.962898 57.589534 -98.497596 -55.421183 -8.562319 -104.740406 97.950022 56.731321 -176.317871
-1.7831 67.5831 -1.169 0.106741 68.704459 6.17881 -2.414941 18.18822 -163.01034 5.665603 18.191332 167.575431 -1.372106 49.064848 -106.347421 61.569137 13.919022 74.839617 -4.589951 4.506024 -88.941602 -138.111123 19.623518 48.630406 -8.641218 37.083794 0.734971 48.112285 -3.395807 38.704097 -21.321835 -27.106738 67.939402 -5.201548 -9.534751 -5.854451 -176.782142 -18.221221 73.658835 47.039385 -41.783308 61.564926 -162.868231 -9.974437 137.020334 -29.262306 -75.778323 -68.950003 1.890712 39.031944 2.617121 24.80047 15.468625 106.080619 179.170701 -6.470892 172.493605 -167.241477 -60.775315 -82.038255 -119.592071 3.783055 -131.316504 92.78551 -58.614289 -16.000791 -3.695314 -19.064257 -9.069826 -70.040064 16.898756 12.806209 1.678652 6.124767 -94.19287 4.922483 0.807619 -2.151474 174.251127 -3.576567 -90.260012 -27.14622 -54.146822 -53.427708 28.732736 43.991175 -20.240927 35.146888 73.599574 -52.610226 125.878776 9.429283 -154.332625 -29.236357 45.474031 -31.023439 128.038313 -13.864388 153.171015 -55.448539 -55.932895 -20.792761 -50.816845 -38.302558 -41.065539 72.463671 61.162384 9.068154 -3.487212 6.037292 4.837666 -60.602931 -55.243349 -179.7023 -84.651616 -29.286482 23.10965 138.999039 23.052556 -49.421836 -29.218086 40.594959 -51.099539 86.147522 1.884333 -113.679592 0.507851 -69.872768 -77.459169 -109.334819 60.016789 20.840288
-2.4788 58.360800000000005 -1.3716000000000002 5.976329 69.605459 12.742122 -11.019187 26.308911 9.093376 1.67936 -28.306619 -2.762459 -11.800021 45.444384 -31.557715 57.454684 -34.447847 35.431749 -37.156903 25.194321 -67.237319 -156.454208 13.177554 57.990703 -158.097081 1.963626 168.440061 154.950389 -12.704543 177.924752 -9.653806 -24.934224 75.225525 -5.512507 -7.642943 -1.992829 -24.36577 36.760893 20.275967 -41.182266 -68.080147 -108.509559 -15.654412 11.566743 -10.106078 -173.80653 -40.468337 56.106524 -151.395285 -51.80944 174.96742 125.094331 -4.172694 -91.679726 -9.366383 13.88106 7.164338 132.755414 -5.245731 47.925169 -34.807923 -30.076554 -49.748581 -15.236665 -9.445833 91.17912 -9.671264 -39.956339 -8.339329 106.263505 -11.021795 153.706914 163.916638 -29.070926 83.830218 12.263654 -16.211657 -4.494844 156.575093 -0.795915 -84.545104 140.563125 -16.396536 -52.556445 142.24853 -50.35313 -154.108214 168.130264 18.69534 -46.898284 121.596367 -56.582945 179.337827 54.09728 26.684382 -62.789159 146.716029 -1.193297 -174.163415 119.027153 -24.6655 -108.573375 77.601163 58.172624 -135.045262 -12.699651 -41.084176 49.977224 -147.7729 65.35836 -25.031331 138.576534 -12.536397 -86.164343 -100.004452 6.522445 -101.595572 -139.010209 13.071576 178.879709 -28.24241 42.036471 -40.704903 87.554873 -7.421621 107.07327 72.388698 47.891238 26.720036 -82.987218 -83.952598 -177.1264
